<svg width="35" height="28" viewBox="0 0 35 28" fill="none" xmlns="http://www.w3.org/2000/svg">
<path d="M34.2755 18.8677C31.804 18.2794 30.2797 18.0666 27.5368 18.1354L27.6078 18.5947C30.1845 18.4605 31.6477 18.5497 34.2755 18.8677Z" fill="#00ffa6"/>
<path d="M33.2802 20.2467C31.2164 19.5398 29.9312 19.232 27.5811 19.0644L27.6038 19.4628C29.8173 19.5608 31.0605 19.7579 33.2802 20.2467Z" fill="#00ffa6"/>
<path d="M31.9802 21.1785C30.3815 20.5093 29.379 20.1976 27.525 19.9407L27.522 20.2578C29.2714 20.4522 30.2465 20.674 31.9802 21.1785Z" fill="#00ffa6"/>
<path d="M0.724487 18.8677C3.13708 18.2799 4.62497 18.0675 7.30269 18.137L7.23349 18.5963C4.71802 18.4614 3.28967 18.5503 0.724487 18.8677Z" fill="#00ffa6"/>
<path d="M1.71979 20.2467C3.78365 19.5397 5.06882 19.232 7.41893 19.0643L7.39617 19.4627C5.18273 19.5608 3.9395 19.7579 1.71979 20.2467Z" fill="#00ffa6"/>
<path d="M3.01978 21.1785C4.61847 20.5092 5.62097 20.1975 7.47501 19.9407L7.47798 20.2577C5.7286 20.4521 4.75352 20.6739 3.01978 21.1785Z" fill="#00ffa6"/>
<path d="M6.96224 1.44602C9.50574 2.46422 10.9709 3.60182 13.6284 6.08075C12.9118 6.3923 12.5176 6.59795 11.822 6.9953C10.7427 5.65785 10.0783 5.50588 8.43022 4.66258C7.73167 6.99495 7.87295 8.07515 8.37174 10.5102L7.5031 12.237C6.30922 8.63787 6.24404 5.82584 6.96224 1.44602Z" fill="#00ffa6"/>
<path d="M27.9642 1.44602C25.4207 2.46422 23.9555 3.60182 21.2981 6.08075C22.0147 6.3923 22.4089 6.59795 23.1045 6.9953C24.1837 5.65785 24.8481 5.50588 26.4962 4.66258C27.1948 6.99495 27.0535 8.07515 26.5547 10.5102L27.4234 12.237C28.6172 8.63787 28.6824 5.82584 27.9642 1.44602Z" fill="#00ffa6"/>
<path fill-rule="evenodd" clip-rule="evenodd" d="M17.6987 27.2636C23.7702 27.2636 28.6922 22.3417 28.6922 16.2701C28.6922 10.1985 23.7702 5.27658 17.6987 5.27658C11.6271 5.27658 6.70514 10.1985 6.70514 16.2701C6.70514 22.3417 11.6271 27.2636 17.6987 27.2636ZM17.4648 26.1526C23.1811 26.1526 27.8151 21.5579 27.8151 15.89C27.8151 10.2222 23.1811 5.62745 17.4648 5.62745C11.7485 5.62745 7.1145 10.2222 7.1145 15.89C7.1145 21.5579 11.7485 26.1526 17.4648 26.1526Z" fill="#00ffa6"/>
<path d="M17.271 20.1952C17.4631 20.5304 17.9466 20.5304 18.1387 20.1952L19.3891 18.0131C19.5801 17.6798 19.3395 17.2645 18.9553 17.2645H16.4544C16.0702 17.2645 15.8296 17.6798 16.0206 18.0131L17.271 20.1952Z" fill="#00ffa6"/>
<path fill-rule="evenodd" clip-rule="evenodd" d="M12.6405 17.4396C14.6589 17.4396 16.2952 15.8033 16.2952 13.7849C16.2952 11.7664 14.6589 10.1301 12.6405 10.1301C10.622 10.1301 8.98572 11.7664 8.98572 13.7849C8.98572 15.8033 10.622 17.4396 12.6405 17.4396ZM9.39507 13.7848C9.39507 12.0021 10.8323 10.5552 12.6112 10.5395V11.1481C11.2426 11.4362 10.2416 12.4723 10.0638 13.8141H9.3952L9.39507 13.7848Z" fill="#00ffa6"/>
<path fill-rule="evenodd" clip-rule="evenodd" d="M22.6984 17.4396C20.6799 17.4396 19.0436 15.8034 19.0436 13.7849C19.0436 11.7664 20.6799 10.1301 22.6984 10.1301C24.7169 10.1301 26.3531 11.7664 26.3531 13.7849C26.3531 15.8034 24.7169 17.4396 22.6984 17.4396ZM25.9298 13.7848C25.9298 12.0021 24.4925 10.5552 22.7136 10.5395V11.148C24.0822 11.4361 25.0832 12.4721 25.261 13.814H25.9296L25.9298 13.7848Z" fill="#00ffa6"/>
<path d="M16.2368 13.8141C17.4055 13.5047 18.0574 13.5077 19.219 13.8141V14.4574C18.0085 14.1362 17.3558 14.1338 16.2368 14.4574V13.8141Z" fill="#00ffa6"/>
</svg>
