<svg width="32" height="25" viewBox="0 0 32 25" fill="none" xmlns="http://www.w3.org/2000/svg">
<path d="M31.3376 17.2504C29.0779 16.7125 27.6844 16.518 25.1765 16.5809L25.2414 17.0008C27.5973 16.8781 28.9351 16.9597 31.3376 17.2504Z" fill="#00FFB3"/>
<path d="M30.4277 18.5113C28.5407 17.8649 27.3657 17.5835 25.217 17.4302L25.2378 17.7945C27.2616 17.8842 28.3982 18.0644 30.4277 18.5113Z" fill="#00FFB3"/>
<path d="M29.2391 19.3632C27.7775 18.7513 26.8609 18.4663 25.1658 18.2315L25.1631 18.5213C26.7625 18.6991 27.654 18.9019 29.2391 19.3632Z" fill="#00FFB3"/>
<path d="M0.662415 17.2505C2.86822 16.7131 4.22857 16.5189 6.67677 16.5824L6.6135 17.0023C4.31364 16.879 3.00772 16.9603 0.662415 17.2505Z" fill="#00FFB3"/>
<path d="M1.57239 18.5113C3.45934 17.8649 4.63436 17.5835 6.78303 17.4302L6.76222 17.7945C4.7385 17.8842 3.60184 18.0644 1.57239 18.5113Z" fill="#00FFB3"/>
<path d="M2.76093 19.3632C4.22259 18.7513 5.13916 18.4663 6.83428 18.2315L6.837 18.5213C5.23757 18.6991 4.34606 18.9019 2.76093 19.3632Z" fill="#00FFB3"/>
<path d="M6.36549 1.32207C8.69097 2.253 10.0305 3.2931 12.4602 5.55955C11.805 5.84439 11.4447 6.03242 10.8087 6.3957C9.82193 5.17289 9.21447 5.03395 7.70764 4.26293C7.06896 6.39538 7.19813 7.383 7.65417 9.60932L6.85999 11.1881C5.76844 7.89748 5.70884 5.32648 6.36549 1.32207Z" fill="#00FFB3"/>
<path d="M25.5672 1.32207C23.2418 2.253 21.9022 3.2931 19.4725 5.55955C20.1277 5.84439 20.4881 6.03242 21.124 6.3957C22.1108 5.17289 22.7183 5.03395 24.2251 4.26293C24.8638 6.39538 24.7346 7.383 24.2786 9.60932L25.0728 11.1881C26.1643 7.89748 26.2239 5.32648 25.5672 1.32207Z" fill="#00FFB3"/>
<path fill-rule="evenodd" clip-rule="evenodd" d="M16.1816 24.9267C21.7328 24.9267 26.2329 20.4267 26.2329 14.8755C26.2329 9.32439 21.7328 4.82431 16.1816 4.82431C10.6305 4.82431 6.13043 9.32439 6.13043 14.8755C6.13043 20.4267 10.6305 24.9267 16.1816 24.9267ZM16.1873 23.7861C21.1622 23.7861 25.1951 19.7907 25.1951 14.8621C25.1951 9.93354 21.1622 5.93814 16.1873 5.93814C11.2124 5.93814 7.17944 9.93354 7.17944 14.8621C7.17944 19.7907 11.2124 23.7861 16.1873 23.7861Z" fill="#00FFB3"/>
<path d="M15.8402 18.5507C15.9939 18.8189 16.3807 18.8189 16.5343 18.5507L17.7762 16.3836C17.929 16.1169 17.7365 15.7847 17.4292 15.7847H14.9454C14.6381 15.7847 14.4456 16.1169 14.5984 16.3836L15.8402 18.5507Z" fill="#00FFB3"/>
<path fill-rule="evenodd" clip-rule="evenodd" d="M11.557 15.9448C13.4025 15.9448 14.8985 14.4488 14.8985 12.6033C14.8985 10.7578 13.4025 9.26181 11.557 9.26181C9.71155 9.26181 8.21552 10.7578 8.21552 12.6033C8.21552 14.4488 9.71155 15.9448 11.557 15.9448ZM8.58977 12.6032C8.58977 10.9733 9.90382 9.65042 11.5303 9.63605V10.1925C10.279 10.4559 9.36378 11.4032 9.2012 12.63H8.58989L8.58977 12.6032Z" fill="#00FFB3"/>
<path fill-rule="evenodd" clip-rule="evenodd" d="M20.7528 15.9448C18.9073 15.9448 17.4113 14.4488 17.4113 12.6033C17.4113 10.7578 18.9073 9.26181 20.7528 9.26181C22.5983 9.26181 24.0943 10.7578 24.0943 12.6033C24.0943 14.4488 22.5983 15.9448 20.7528 15.9448ZM23.7072 12.6032C23.7072 10.9733 22.3931 9.65041 20.7667 9.63605V10.1925C22.0179 10.4559 22.9331 11.4032 23.0957 12.63H23.7071L23.7072 12.6032Z" fill="#00FFB3"/>
<path d="M14.845 12.63C15.9136 12.3472 16.5096 12.3499 17.5717 12.63V13.2182C16.4649 12.9245 15.8682 12.9223 14.845 13.2182V12.63Z" fill="#00FFB3"/>
</svg>
